<?xml version="1.0" encoding="UTF-8"?>
<svg version="1.1" xmlns="http://www.w3.org/2000/svg" width="2048" height="2048">
<path d="M0 0 C675.84 0 1351.68 0 2048 0 C2048 675.84 2048 1351.68 2048 2048 C1372.16 2048 696.32 2048 0 2048 C0 1372.16 0 696.32 0 0 Z " fill="#000000" transform="translate(0,0)"/>
<path d="M0 0 C1.25562744 0.01244751 1.25562744 0.01244751 2.53662109 0.02514648 C14.13008654 0.34198793 22.34440914 4.9610778 30.37890625 13.24609375 C39.52172341 24.26788587 39.19530479 37.43225716 39.10601807 50.95135498 C39.1077701 52.92037172 39.11128206 54.88938755 39.11639404 56.85839844 C39.12533481 62.2563136 39.1093551 67.65390935 39.08929092 73.05178398 C39.07178723 78.96688012 39.0776718 84.88196222 39.08056259 90.79707718 C39.08268675 102.27219294 39.06424162 113.74718321 39.03855728 125.22226675 C39.00973077 138.49926436 39.00657683 151.77618685 39.00341797 165.05322266 C38.98242594 200.09800163 38.92658137 235.1427527 38.875 270.1875 C38.7925 348.48 38.71 426.7725 38.625 507.4375 C237.945 507.4375 437.265 507.4375 642.625 507.4375 C642.42697772 350.66743772 642.42697772 350.66743772 642.17456055 193.89746094 C642.15197754 163.60986328 642.15197754 163.60986328 642.14778137 149.440979 C642.14311409 139.52311292 642.12475379 129.60538727 642.09712219 119.68756104 C642.06530596 108.25084576 642.05081783 96.81426543 642.05777525 85.37750556 C642.06078873 79.52648792 642.05599476 73.67577193 642.02892435 67.82480955 C642.004584 62.5317561 642.00338828 57.23921746 642.02049446 51.94614029 C642.02261143 50.03484724 642.01629815 48.12352184 642.00058711 46.21229219 C641.8871145 31.54381737 643.67160651 20.55423861 654.2890625 9.56640625 C663.50852356 1.16405462 672.76593423 -0.22498503 684.84765625 0.0703125 C694.85792761 0.62501805 702.31323609 5.02667857 709.42578125 11.91015625 C717.37814221 21.04901512 718.78948652 30.16048236 718.74804783 41.8245163 C718.74920167 42.63403618 718.75035552 43.44355606 718.75154433 44.27760684 C718.75418579 46.98322859 718.74970925 49.68879051 718.74525452 52.39440918 C718.74569072 54.35646914 718.74656654 56.31852904 718.74784368 58.28058863 C718.75007892 63.66686726 718.74608061 69.053126 718.74106562 74.4394021 C718.73674739 80.24981339 718.73820852 86.06022355 718.7389679 91.87063599 C718.73949226 101.93582932 718.73635459 112.00101618 718.73073006 122.06620789 C718.72260322 136.61878883 718.71999528 151.17136678 718.71874207 165.72394973 C718.71664236 189.33452293 718.70990696 212.94509276 718.70043945 236.55566406 C718.69125324 259.49121076 718.6841705 282.42675652 718.67993164 305.36230469 C718.67980011 306.06943498 718.67966859 306.77656527 718.67953308 307.50512376 C718.67821454 314.60649836 718.67693873 321.70787296 718.67569422 328.80924757 C718.67315809 343.27521621 718.67033684 357.74118478 718.66734314 372.20715332 C718.66720585 372.87225675 718.66706856 373.53736018 718.66692711 374.22261826 C718.6577284 418.62758025 718.64186262 463.03254034 718.625 507.4375 C719.60974035 507.43674056 720.59448069 507.43598112 721.60906166 507.43519866 C779.95421408 507.39037929 838.29936637 507.35612993 896.64453226 507.33536934 C903.64786854 507.33287468 910.65120479 507.33028157 917.65454102 507.32763672 C918.35145572 507.3273752 919.04837043 507.32711368 919.76640376 507.32684424 C942.3538461 507.31832213 964.94127844 507.30329995 987.52871472 507.28490556 C1011.39908075 507.26550171 1035.26943971 507.25350742 1059.13981348 507.24932301 C1073.43966241 507.24657683 1087.7394826 507.23789872 1102.03932268 507.22166707 C1111.84114503 507.21110687 1121.64295248 507.20789719 1131.4447801 507.21049725 C1137.10248424 507.21178003 1142.7601381 507.20979368 1148.41783333 507.19908905 C1153.59766474 507.18936004 1158.77741205 507.18886289 1163.95724732 507.19570221 C1165.83088261 507.19654758 1167.70452314 507.19400759 1169.57814812 507.18773364 C1172.12695363 507.17969524 1174.67545646 507.18404151 1177.22425747 507.19140434 C1178.31263677 507.1835233 1178.31263677 507.1835233 1179.42300352 507.17548305 C1191.50420488 507.25422076 1200.60098358 511.58611972 1209.5 519.75 C1217.38019411 528.12270624 1219.0413659 537.54465359 1218.828125 548.6171875 C1218.24746536 559.53805526 1213.47353405 567.67251644 1205.7109375 575.32421875 C1194.87438724 584.17629787 1182.71186213 584.00703697 1169.45918274 583.91851807 C1167.51571935 583.92026977 1165.57225689 583.92378113 1163.62879944 583.92889404 C1158.29700542 583.93784122 1152.96553436 583.92184631 1147.63378133 583.90179092 C1141.79262787 583.88429651 1135.95148877 583.89017119 1130.11031628 583.89306259 C1118.77687258 583.8951874 1107.44355587 583.87673601 1096.11014478 583.85105728 C1082.99801861 583.82223875 1069.88596853 583.81907727 1056.77380371 583.81591797 C1022.16168237 583.79492313 987.54958928 583.73907859 952.9375 583.6875 C836.9528125 583.56375 836.9528125 583.56375 718.625 583.4375 C718.625 782.7575 718.625 982.0775 718.625 1187.4375 C874.69181542 1187.23948751 874.69181542 1187.23948751 1030.75854492 1186.98706055 C1060.91467285 1186.96447754 1060.91467285 1186.96447754 1075.02339172 1186.96028137 C1084.89621418 1186.9556153 1094.76889546 1186.93726011 1104.64167786 1186.90962219 C1116.0277862 1186.87779498 1127.41375895 1186.86332041 1138.79991211 1186.87027525 C1144.62442962 1186.87328736 1150.44864406 1186.86851181 1156.27310598 1186.84142435 C1161.54342386 1186.81706309 1166.81322485 1186.81590184 1172.08356667 1186.83299446 C1173.98546897 1186.83510938 1175.88740393 1186.82881391 1177.78924239 1186.81308711 C1189.7258048 1186.72020854 1201.00151585 1187.09707316 1210.94140625 1194.71875 C1212.05322266 1195.81703125 1212.05322266 1195.81703125 1213.1875 1196.9375 C1214.33412109 1198.03578125 1214.33412109 1198.03578125 1215.50390625 1199.15625 C1223.46521181 1207.71868545 1226.22538035 1215.98825913 1226.02685547 1227.65771484 C1225.56216355 1238.75986861 1221.00007085 1247.45088031 1213.0625 1255.1875 C1201.74902026 1264.13020055 1189.66140888 1264.15183175 1175.95292664 1264.03877258 C1173.97417364 1264.04095595 1171.99542207 1264.04533934 1170.01667815 1264.05171841 C1164.60731152 1264.06284919 1159.19844393 1264.042967 1153.78914082 1264.01782811 C1147.94541634 1263.99617059 1142.10171843 1264.00354728 1136.25796509 1264.00733948 C1126.14259397 1264.00995712 1116.02738452 1263.99431269 1105.91205406 1263.96615028 C1091.28714357 1263.92545919 1076.66228693 1263.9124706 1062.03733037 1263.90621033 C1038.30747655 1263.89572053 1014.57770685 1263.86206808 990.84790039 1263.81469727 C967.80102993 1263.76874302 944.75418252 1263.7333407 921.70727539 1263.7121582 C920.99632056 1263.71150057 920.28536573 1263.71084294 919.55286682 1263.71016538 C912.41288028 1263.70357253 905.27289356 1263.6971935 898.1329067 1263.69097109 C883.58915764 1263.67829152 869.04541008 1263.66418526 854.50166321 1263.6492157 C853.83302976 1263.64852925 853.16439631 1263.6478428 852.47550125 1263.64713555 C807.85863247 1263.60116634 763.24181068 1263.52184004 718.625 1263.4375 C718.62613916 1264.41762869 718.62727832 1265.39775738 718.628452 1266.40758693 C718.69568799 1324.48558209 718.74705858 1382.56357666 718.77819599 1440.64160239 C718.78193796 1447.61360739 718.78582763 1454.58561231 718.78979492 1461.55761719 C718.7901872 1462.25141145 718.79057948 1462.94520571 718.79098364 1463.66002404 C718.80376519 1486.14347974 718.82629726 1508.62691281 718.85389166 1531.1103548 C718.88300223 1554.87233341 718.90098992 1578.6342945 718.90726548 1602.3962909 C718.91138378 1616.63012737 718.92439569 1630.86389886 718.9487494 1645.09771533 C718.96459547 1654.85563051 718.96940291 1664.61351204 718.96550413 1674.37143914 C718.96358085 1680.00296359 718.96654922 1685.63437439 718.98261642 1691.26587868 C718.99722268 1696.4229742 718.99794752 1701.57987973 718.98769668 1706.73698403 C718.98642986 1708.60121804 718.99022917 1710.46546394 718.99964955 1712.32967459 C719.06821145 1726.73689849 718.05468975 1738.42770256 707.80859375 1749.37890625 C698.6449022 1757.95019754 688.93842779 1761.0646138 676.58203125 1760.76953125 C665.75208059 1759.86079896 657.81172805 1754.32104009 650.625 1746.4375 C648.84178269 1744.10912768 647.8717246 1742.17070393 646.625 1739.4375 C646.2894624 1738.8200144 645.95392479 1738.20252879 645.60821939 1737.56633151 C641.42799895 1728.9633551 642.08127106 1719.86690688 642.14398193 1710.54379272 C642.14223058 1708.61765313 642.13871986 1706.69151446 642.13360596 1704.76538086 C642.12465188 1699.47691481 642.14066315 1694.18877389 642.16070908 1688.90034911 C642.17819351 1683.10824829 642.17232946 1677.31616212 642.16943741 1671.52404213 C642.16731191 1660.28387967 642.18577004 1649.04384516 642.21144272 1637.80371556 C642.24025267 1624.80052759 642.24342226 1611.79741638 642.24658203 1598.79418945 C642.26757989 1564.46693937 642.32342439 1530.13971776 642.375 1495.8125 C642.4575 1419.12875 642.54 1342.445 642.625 1263.4375 C443.305 1263.4375 243.985 1263.4375 38.625 1263.4375 C38.78342313 1416.30337278 38.78342313 1416.30337278 38.98535156 1569.16918945 C39.00341797 1598.69958496 39.00341797 1598.69958496 39.0067749 1612.51335144 C39.01050938 1622.18457413 39.02520041 1631.8557047 39.04730225 1641.52690125 C39.07274924 1652.67832563 39.08434712 1663.82966147 39.0787798 1674.98111511 C39.07636828 1680.68655132 39.08021352 1686.39178957 39.10186052 1692.09718955 C39.12132125 1697.2577036 39.1222966 1702.41787963 39.10860443 1707.57840919 C39.10690975 1709.44264403 39.11196991 1711.30690005 39.12453032 1713.17109334 C39.21465343 1727.38388838 37.90788146 1738.68721484 27.625 1749.4375 C19.12786737 1757.41343304 10.49702643 1761.13638443 -1.19165039 1761.04663086 C-10.61794217 1760.58613515 -19.14791572 1757.01145539 -26 1750.4375 C-27.15625493 1749.13117794 -28.2858719 1747.80029227 -29.375 1746.4375 C-30.1175 1745.509375 -30.86 1744.58125 -31.625 1743.625 C-37.69299148 1732.57258694 -37.93883508 1722.72128671 -37.85601807 1710.42353821 C-37.8577641 1708.49188533 -37.86126961 1706.56023339 -37.86637473 1704.62858647 C-37.87529211 1699.34018352 -37.85935556 1694.05210641 -37.83926249 1688.76374495 C-37.82195519 1683.05359219 -37.82783651 1677.34345714 -37.83087158 1671.63328552 C-37.83296687 1661.746536 -37.82043896 1651.85989225 -37.79792023 1641.97316933 C-37.76538337 1627.67872342 -37.75499147 1613.38432854 -37.74996826 1599.08984961 C-37.74121827 1575.89686479 -37.7146451 1552.70394006 -37.67675781 1529.51098633 C-37.64000094 1506.98397107 -37.61167588 1484.45697089 -37.59472656 1461.92993164 C-37.59420046 1461.23514837 -37.59367435 1460.54036511 -37.59313231 1459.8245278 C-37.58785808 1452.84701937 -37.58275484 1445.86951081 -37.57777687 1438.89200216 C-37.53603591 1380.40713067 -37.46547221 1321.92231595 -37.375 1263.4375 C-38.35686494 1263.43901888 -39.33872987 1263.44053776 -40.35034829 1263.44210267 C-98.53695424 1263.53175935 -156.72355913 1263.60024913 -214.91021933 1263.64176132 C-221.89595689 1263.64675059 -228.8816943 1263.65193681 -235.86743164 1263.65722656 C-236.56258999 1263.6577496 -237.25774833 1263.65827263 -237.97397208 1263.65881152 C-260.4989492 1263.67585157 -283.02388614 1263.70589282 -305.54883893 1263.74268888 C-329.35611561 1263.781509 -353.1633612 1263.80548787 -376.97066945 1263.81385398 C-391.23062803 1263.81934383 -405.49047124 1263.83668642 -419.75039431 1263.86916587 C-429.52747823 1263.8903012 -439.30450245 1263.89670224 -449.08160756 1263.89150551 C-454.7234168 1263.88894224 -460.36502436 1263.89288604 -466.00679779 1263.9143219 C-471.17447809 1263.93381297 -476.3418214 1263.93475321 -481.50951733 1263.92109558 C-483.37646388 1263.91940803 -485.24343161 1263.92446039 -487.11033658 1263.93703273 C-501.11667348 1264.02585178 -511.64239698 1263.00274294 -522.1484375 1252.796875 C-530.62576125 1243.81388633 -533.94610143 1235.98170663 -533.8605957 1223.52685547 C-533.43772302 1212.93395688 -529.01088257 1205.08696989 -521.69140625 1197.5625 C-510.056572 1186.88906015 -496.41773784 1187.00072775 -481.47492981 1187.07673645 C-479.56027091 1187.07542262 -477.64561254 1187.07278902 -475.73095703 1187.06895447 C-470.47899295 1187.06224509 -465.22721334 1187.07423907 -459.97527267 1187.08928181 C-454.22123364 1187.10240398 -448.46720279 1187.09799651 -442.71315289 1187.09582806 C-431.54910066 1187.09423455 -420.38512095 1187.10807218 -409.22108735 1187.12733204 C-396.30473307 1187.1489471 -383.38842225 1187.15131712 -370.4720459 1187.15368652 C-336.37718579 1187.16943224 -302.2823418 1187.21131564 -268.1875 1187.25 C-192.019375 1187.311875 -115.85125 1187.37375 -37.375 1187.4375 C-37.375 988.1175 -37.375 788.7975 -37.375 583.4375 C-190.61501821 583.59593091 -190.61501821 583.59593091 -343.85498047 583.79785156 C-373.45336914 583.81591797 -373.45336914 583.81591797 -387.29763794 583.8192749 C-396.99307112 583.82301035 -406.68841247 583.83770542 -416.38381958 583.85980225 C-427.56185902 583.88524054 -438.73981014 583.89684917 -449.91787875 583.8912798 C-455.6375268 583.88886719 -461.3569774 583.89272703 -467.07658935 583.91436052 C-472.2487523 583.93380469 -477.42057792 583.93480741 -482.59275627 583.92110443 C-484.46235006 583.91940812 -486.33196489 583.92448236 -488.20151734 583.93703032 C-502.15434889 584.02517283 -511.6418672 582.85732304 -522.11328125 572.796875 C-530.65893723 563.88223561 -533.94591615 555.95471912 -533.8605957 543.52685547 C-533.44142797 533.02676512 -529.07006213 525.13253947 -521.84765625 517.6328125 C-518.03493071 514.24773864 -513.94536375 511.67728091 -509.375 509.4375 C-508.66445176 509.08872807 -507.95390352 508.73995613 -507.22182351 508.38061535 C-503.60653117 507.18291634 -500.23001522 507.1645411 -496.46644878 507.19140434 C-495.27508919 507.18794281 -495.27508919 507.18794281 -494.05966172 507.18441135 C-491.38789116 507.17910115 -488.71635976 507.18810392 -486.04460144 507.19699097 C-484.11400382 507.19611911 -482.18340643 507.19436849 -480.2528103 507.19181263 C-474.93954191 507.18733122 -469.62635384 507.19535372 -464.31309569 507.20536876 C-458.58647703 507.21398951 -452.85986306 507.21108407 -447.13323975 507.20956421 C-437.20876679 507.20851449 -427.28432009 507.21480021 -417.35985374 507.22603989 C-403.01066726 507.2422801 -388.66149349 507.24750138 -374.31229881 507.25001587 C-351.03281754 507.2543953 -327.75335058 507.26769396 -304.47387695 507.28662109 C-281.85734124 507.30498802 -259.24080926 507.3191562 -236.62426758 507.32763672 C-235.57866786 507.3280313 -235.57866786 507.3280313 -234.51194491 507.32843385 C-227.51175527 507.33107087 -220.51156561 507.3336225 -213.51137592 507.33611157 C-154.79924138 507.35699588 -96.08712077 507.39229041 -37.375 507.4375 C-37.37651888 506.4323594 -37.37803776 505.42721879 -37.37960267 504.39161938 C-37.44628931 460.08647703 -37.50799891 415.78132926 -37.54437256 371.47615051 C-37.54492479 370.80522433 -37.54547702 370.13429815 -37.54604598 369.44304088 C-37.55801805 354.86145312 -37.56909871 340.27986482 -37.57926132 325.6982757 C-37.5842506 318.54730412 -37.58943682 311.39633269 -37.59472656 304.24536133 C-37.5952496 303.53375971 -37.59577263 302.8221581 -37.59631152 302.0889928 C-37.6133521 279.03049627 -37.64339374 255.97203899 -37.68018888 232.91356624 C-37.71793692 209.21486177 -37.74254587 185.51617902 -37.75065996 161.817445 C-37.75591603 146.54760549 -37.77269319 131.27786181 -37.80666587 116.00805584 C-37.82779933 105.9996996 -37.83420266 95.99140168 -37.82900551 85.98302474 C-37.82644195 80.20754974 -37.83038938 74.43227176 -37.8518219 68.65683174 C-37.87130883 63.36702599 -37.87225586 58.07754948 -37.85859558 52.78772847 C-37.85690763 50.87636784 -37.86196348 48.96498654 -37.87453273 47.05366649 C-37.95796219 33.58126533 -37.18288878 21.70644338 -27.375 11.4375 C-18.88245335 3.5434214 -11.61565847 -0.14861864 0 0 Z " fill="#FEFEFE" transform="translate(677.375,143.5625)"/>
<path d="M0 0 C199.32 0 398.64 0 604 0 C604 199.32 604 398.64 604 604 C404.68 604 205.36 604 0 604 C0 404.68 0 205.36 0 0 Z " fill="#000000" transform="translate(716,727)"/>
<path d="M0 0 C1.27629272 -0.01178284 1.27629272 -0.01178284 2.57836914 -0.02380371 C12.72734985 -0.09668073 22.24527579 0.51117576 32.18017578 2.64648438 C35.49058981 3.34657477 38.76842874 3.83466669 42.125 4.25 C51.11281213 5.58360305 60.02632767 8.33721309 68.35546875 11.9609375 C70.78716866 13.01264045 73.03038079 13.85050876 75.5625 14.5625 C82.94393701 16.97276515 89.77719468 20.76097238 96.625 24.375 C97.23569336 24.69629883 97.84638672 25.01759766 98.47558594 25.34863281 C123.6571247 38.75373056 147.24891214 58.9889572 163.625 82.375 C164.2756543 83.29176514 164.2756543 83.29176514 164.93945312 84.22705078 C176.79375436 101.10876969 185.3393301 119.77334647 191.625 139.375 C191.97433594 140.35339844 192.32367187 141.33179688 192.68359375 142.33984375 C193.81087426 145.97427094 194.49512328 149.6303483 195.125 153.375 C195.30095703 154.37466797 195.30095703 154.37466797 195.48046875 155.39453125 C195.88145161 157.7185072 196.25450177 160.04596617 196.625 162.375 C196.88639771 163.94386963 196.88639771 163.94386963 197.15307617 165.54443359 C198.49136322 174.06950752 198.97631028 182.3756815 198.9375 191 C198.93258545 192.30815674 198.9276709 193.61631348 198.92260742 194.96411133 C198.72101212 211.77302447 195.7668985 227.24252716 191.1875 243.35986328 C190.44547881 246.01812843 189.79344266 248.69743137 189.125 251.375 C184.34718849 268.46086941 174.12864649 286.14553174 163.625 300.375 C163.2340918 300.90577148 162.84318359 301.43654297 162.44042969 301.98339844 C153.19945989 314.41683341 142.80718335 326.72888456 130.625 336.375 C129.66335938 337.15101563 128.70171875 337.92703125 127.7109375 338.7265625 C120.35598945 344.57747001 112.75542203 349.64204736 104.625 354.375 C103.88121094 354.81199219 103.13742187 355.24898437 102.37109375 355.69921875 C100.14432438 356.97105477 97.8945894 358.18102889 95.625 359.375 C95.07005859 359.66874512 94.51511719 359.96249023 93.94335938 360.26513672 C84.09231627 365.44596017 74.16629254 369.80525869 63.625 373.375 C62.52043457 373.75785156 62.52043457 373.75785156 61.39355469 374.1484375 C11.77545375 391.11476232 -44.4465589 385.9385504 -91.50244141 363.54345703 C-117.50242729 350.77543659 -141.81239628 332.53186939 -159.375 309.375 C-160.14585937 308.44300781 -160.91671875 307.51101563 -161.7109375 306.55078125 C-168.95361274 297.62881064 -174.51048773 287.89053156 -180.01708984 277.82446289 C-180.87840078 276.27078927 -181.76178048 274.72898503 -182.67431641 273.20483398 C-186.47345676 266.77693598 -188.78318698 260.00630598 -191.125 252.9375 C-191.91050118 250.60514618 -192.69691173 248.27309835 -193.484375 245.94140625 C-193.82436523 244.91990479 -194.16435547 243.89840332 -194.51464844 242.84594727 C-195.30252739 240.41308287 -195.30252739 240.41308287 -196.375 238.375 C-196.92223783 235.63383596 -197.33667129 232.87938942 -197.765625 230.1171875 C-198.1858449 227.53660632 -198.64619996 225.00268418 -199.171875 222.4453125 C-205.26226348 191.28967125 -203.2340557 151.72375882 -188.29882812 123.20654297 C-187.00146349 120.63444216 -186.07548662 117.96668938 -185.125 115.25 C-174.30236844 86.75040357 -150.81429387 59.21692931 -126.375 41.375 C-125.62605469 40.82070312 -124.87710938 40.26640625 -124.10546875 39.6953125 C-121.56297722 37.86539323 -118.98204036 36.11183811 -116.375 34.375 C-115.82666504 34.00648926 -115.27833008 33.63797852 -114.71337891 33.25830078 C-97.21573196 21.59160966 -78.52224726 13.30940016 -58.375 7.375 C-57.67600586 7.16649414 -56.97701172 6.95798828 -56.25683594 6.74316406 C-51.66525789 5.40254083 -47.06050546 4.31711699 -42.375 3.375 C-41.29581299 3.15070313 -41.29581299 3.15070313 -40.19482422 2.921875 C-26.87930531 0.28996839 -13.52350247 0.0614987 0 0 Z " fill="#FDFDFD" transform="translate(1025.375,1520.625)"/>
<path d="M0 0 C1.07040527 0.01595215 2.14081055 0.0319043 3.24365234 0.04833984 C25.50216415 0.48787501 47.7699915 8.07483411 68 17 C68.80381104 17.3494165 69.60762207 17.69883301 70.43579102 18.05883789 C82.36564151 23.31741546 93.33948415 29.4991661 104 37 C104.57411621 37.40299316 105.14823242 37.80598633 105.73974609 38.22119141 C128.93819276 54.74827926 149.0432173 76.58340709 162 102 C162.64866554 103.18431371 163.30128418 104.36646756 163.95703125 105.546875 C168.34457309 113.48803924 172.00175902 121.41363964 175 130 C175.36996094 131.01964844 175.73992187 132.03929687 176.12109375 133.08984375 C178.09768052 138.71551378 179.54772718 144.19443934 180.5 150.078125 C181.26877247 154.57063914 182.30739783 159.00149304 183.31640625 163.4453125 C188.66617201 191.26409443 185.74012244 222.35920744 175.83984375 248.71044922 C175.01109145 250.96976289 174.26492078 253.24342652 173.53125 255.53515625 C164.63104057 282.45007059 146.66741865 310.48401467 125 329 C124.34 329 123.68 329 123 329 C123 329.66 123 330.32 123 331 C119.53202827 334.23319608 115.73887379 337.08781187 112 340 C110.73929688 340.98226562 110.73929688 340.98226562 109.453125 341.984375 C87.9506831 358.14459531 63.8910287 369.84784255 38 377 C36.83597656 377.32484375 35.67195313 377.6496875 34.47265625 377.984375 C31.32769681 378.7776981 28.18949283 379.41099958 25 380 C24.03392822 380.20085205 24.03392822 380.20085205 23.04833984 380.40576172 C-29.74485525 391.1628441 -85.35306735 378.2579899 -130 349 C-156.49949469 330.71302123 -177.62771446 307.21980901 -193 279 C-193.94552734 277.30810547 -193.94552734 277.30810547 -194.91015625 275.58203125 C-201.07884814 264.4102814 -205.02500985 253.22186246 -208.44482422 240.98339844 C-208.91277933 239.31160102 -209.39429962 237.64360929 -209.87890625 235.9765625 C-217.4521661 208.30046105 -217.90220473 177.59240907 -210 150 C-209.72558921 148.37894364 -209.47428663 146.75374814 -209.25 145.125 C-201.67423863 102.25441239 -168.91956681 61.41016264 -134.21484375 36.84375 C-122.07363397 28.50161117 -109.12186478 20.28414778 -95.125 15.5 C-90.98526013 14.06430298 -86.91067361 12.58039756 -82.875 10.875 C-78.33136653 9.02333923 -73.74154866 7.82970202 -68.96875 6.71484375 C-66.29228541 6.07037925 -63.69415906 5.30365538 -61.0625 4.5 C-40.9904023 -0.84313587 -20.5867253 -0.51753625 0 0 Z " fill="#FDFDFD" transform="translate(1039,144)"/>
<path d="M0 0 C1.44923875 0.49594987 2.899824 0.98797828 4.3515625 1.4765625 C12.44698513 4.2222283 20.34204626 7.17614893 28 11 C28.61278809 11.30244629 29.22557617 11.60489258 29.85693359 11.91650391 C74.67165817 34.19988993 111.56283721 73.08786467 127.62890625 120.8671875 C127.86367676 121.57584961 128.09844727 122.28451172 128.34033203 123.01464844 C128.90884065 124.72564477 129.49744768 126.42993922 130.08984375 128.1328125 C131.17404185 131.39846944 132.10275691 134.67777557 133 138 C133.32363525 139.13864502 133.32363525 139.13864502 133.65380859 140.30029297 C137.40968933 153.89412435 138.46770832 167.03740925 138.4375 181.0625 C138.43754028 181.84206055 138.43758057 182.62162109 138.43762207 183.42480469 C138.40654727 193.77434978 137.66610995 203.77016189 136 214 C135.86489014 214.83055908 135.72978027 215.66111816 135.59057617 216.5168457 C126.99472912 265.13451441 95.84813113 309.68513884 55.86523438 337.72167969 C51.03916385 341.02918038 46.04646043 344.04110414 41 347 C40.41831055 347.34691895 39.83662109 347.69383789 39.23730469 348.05126953 C37.43406201 349.12629833 35.62455131 350.18989677 33.8125 351.25 C32.21341797 352.18585938 32.21341797 352.18585938 30.58203125 353.140625 C12.66790511 362.88393629 -8.89462677 369.0768334 -29 372 C-30.17087158 372.17515137 -31.34174316 372.35030273 -32.5480957 372.53076172 C-42.37281338 373.92601201 -52.02319684 374.32291877 -61.9375 374.25 C-62.68013092 374.24723053 -63.42276184 374.24446106 -64.18789673 374.24160767 C-74.90971443 374.19476862 -85.41991015 373.88637261 -96 372 C-97.25683594 371.78214844 -98.51367188 371.56429688 -99.80859375 371.33984375 C-117.50456613 368.02524503 -134.49578803 363.11382269 -150.5078125 354.8046875 C-152.79436878 353.62304432 -155.10167653 352.48053066 -157.4296875 351.3828125 C-175.32121489 342.90360791 -190.57709219 330.43471511 -205 317 C-205.73863281 316.31550781 -206.47726563 315.63101562 -207.23828125 314.92578125 C-227.91683398 295.05527143 -241.82169185 269.50707637 -252 243 C-252.69609375 241.20175781 -252.69609375 241.20175781 -253.40625 239.3671875 C-266.51253508 203.00523805 -265.559044 159.37432662 -253 123 C-252.03082442 120.98488246 -251.03627442 118.98144779 -250 117 C-249.57052995 115.71912441 -249.17184542 114.4272894 -248.8125 113.125 C-241.0235056 89.2387505 -224.08417952 67.93968472 -207 50 C-206.34644531 49.29359375 -205.69289062 48.5871875 -205.01953125 47.859375 C-192.86645097 35.11030145 -177.22020218 24.67309934 -162 16 C-160.65808594 15.22849609 -160.65808594 15.22849609 -159.2890625 14.44140625 C-154.22274291 11.59603628 -149.17947023 9.10425514 -143.7421875 7.0546875 C-141.76966427 6.29602472 -139.8182301 5.48167987 -137.8828125 4.6328125 C-126.29509839 -0.34809802 -114.31111944 -3.34922192 -102 -6 C-101.1632373 -6.18224121 -100.32647461 -6.36448242 -99.46435547 -6.55224609 C-67.9018918 -13.07502545 -30.15971443 -11.12501193 0 0 Z " fill="#FDFDFD" transform="translate(406,153)"/>
<path d="M0 0 C1.75626676 -0.01153301 3.51249812 -0.03200577 5.26855469 -0.06152344 C17.17213209 -0.25999031 27.87574923 0.82828495 39.4006958 3.82662964 C41.83765331 4.43920059 44.29270187 4.90196045 46.76464844 5.34985352 C51.729638 6.32375531 56.47475366 7.80364485 61.26464844 9.42016602 C62.16602539 9.72220947 63.06740234 10.02425293 63.99609375 10.33544922 C72.28315141 13.18040106 80.23898589 16.62424003 88.17285156 20.32788086 C91.85008532 22.02830104 95.55837002 23.65925051 99.26464844 25.29516602 C99.26464844 25.95516602 99.26464844 26.61516602 99.26464844 27.29516602 C99.95558594 27.54266602 100.64652344 27.79016602 101.35839844 28.04516602 C122.54052796 37.15575936 142.50429924 56.2265481 156.26464844 74.29516602 C157.42287109 75.69508789 157.42287109 75.69508789 158.60449219 77.12329102 C174.65907802 96.90619299 185.64564504 120.79975119 192.26464844 145.29516602 C192.50876465 146.15770996 192.75288086 147.02025391 193.00439453 147.90893555 C196.96492329 162.35951344 197.74083003 176.39994137 197.76464844 191.29516602 C197.7713858 192.59336273 197.7713858 192.59336273 197.77825928 193.91778564 C197.80312751 205.69778534 196.67098534 216.77078762 194.26464844 228.29516602 C193.99390993 229.65938187 193.72500202 231.02396242 193.45800781 232.38891602 C192.27195624 238.42942658 190.72933719 243.64306023 188.26464844 249.29516602 C187.66277187 251.14052355 187.06149237 252.98614105 186.47802734 254.83740234 C181.23714584 271.10457956 172.3038942 286.51112223 162.26464844 300.29516602 C161.53246094 301.31094727 160.80027344 302.32672852 160.04589844 303.37329102 C151.48128653 314.99946902 141.60035304 326.30331011 130.26464844 335.29516602 C128.92660156 336.38958008 128.92660156 336.38958008 127.56152344 337.50610352 C108.43337487 352.74133743 87.16803678 364.40472427 63.92871094 372.04125977 C60.28318741 373.22105263 60.28318741 373.22105263 56.98730469 374.79516602 C52.21158069 376.8860536 47.1659124 377.82235315 42.07714844 378.85766602 C41.01633057 379.07382568 39.9555127 379.28998535 38.86254883 379.51269531 C-3.53094133 387.85432286 -54.93176234 385.17628581 -92.73535156 362.29516602 C-94.33830078 361.6184082 -94.33830078 361.6184082 -95.97363281 360.92797852 C-123.76380907 349.15865841 -148.00279634 326.24271634 -165.73535156 302.29516602 C-166.35796875 301.46758789 -166.98058594 300.64000977 -167.62207031 299.78735352 C-169.40575453 297.334268 -171.08370493 294.8392056 -172.73535156 292.29516602 C-173.09419434 291.74683105 -173.45303711 291.19849609 -173.82275391 290.63354492 C-200.83033923 248.80266953 -208.57821922 198.75871874 -198.73535156 150.29516602 C-196.89716624 142.78588548 -194.42900139 135.53463575 -191.73535156 128.29516602 C-191.49059082 127.6085791 -191.24583008 126.92199219 -190.99365234 126.21459961 C-174.56796691 80.18326804 -137.90490207 42.34971301 -94.73535156 20.29516602 C-91.45055412 18.90529796 -88.14934119 17.6442169 -84.79394531 16.43579102 C-81.96868383 15.38218137 -79.31921499 14.17661955 -76.61035156 12.85766602 C-65.81597492 7.89131276 -54.25146841 4.47340115 -42.54785156 2.48266602 C-41.89743896 2.37100098 -41.24702637 2.25933594 -40.5769043 2.14428711 C-27.20536872 0.10712205 -13.49861368 0.06131183 0 0 Z " fill="#FDFDFD" transform="translate(1698.7353515625,832.704833984375)"/>
<path d="M0 0 C0.7734375 -0.020625 1.546875 -0.04125 2.34375 -0.0625 C13.86338849 -0.13981301 22.59601184 5.57035728 30.7490387 13.38827515 C32.35149712 14.98214711 33.94589147 16.58415501 35.53344727 18.19287109 C36.41258286 19.0715686 37.29171844 19.95026611 38.19749451 20.85559082 C40.58255671 23.24237232 42.96080905 25.63556364 45.33616376 28.03198195 C47.82910142 30.54380399 50.33066354 33.04700816 52.83128357 35.55117798 C57.5544476 40.28362817 62.2699186 45.02366606 66.98260492 49.7665478 C72.35278398 55.17037821 77.7315886 60.56558837 83.11109841 65.96012759 C94.1669555 77.04725595 105.21204928 88.1450428 116.25 99.25 C119.40050986 97.85526073 121.51613431 96.22662756 123.93534851 93.78497314 C124.65145798 93.06727753 125.36756744 92.34958191 126.1053772 91.61013794 C126.8810202 90.82259125 127.65666321 90.03504456 128.45581055 89.22363281 C129.28074509 88.39417145 130.10567963 87.56471008 130.95561218 86.71011353 C132.74748909 84.90727401 134.53708757 83.10216773 136.32468224 81.29508209 C139.15783649 78.43178256 141.99741755 75.57501683 144.83930969 72.72039795 C151.9003461 65.62531474 158.95213543 58.52105966 165.99884033 51.41174316 C171.46986016 45.89212715 176.94412168 40.37582357 182.42905074 34.87002444 C184.78844176 32.50104913 187.14372952 30.12830111 189.49384117 27.75009918 C192.12145187 25.09114459 194.75828581 22.44165855 197.3972168 19.79394531 C198.54549957 18.62477066 198.54549957 18.62477066 199.71697998 17.43197632 C209.79118912 7.37478736 218.54945047 2.73265407 232.78051758 2.67773438 C243.09630671 2.95411185 251.18261723 7.09916833 258.8125 14.0625 C262.65237362 18.29705014 265.04919071 23.01082647 267.25 28.25 C267.683125 29.19875 268.11625 30.1475 268.5625 31.125 C270.81841571 41.37916231 269.11906037 50.98624045 264.25 60.25 C255.84369163 71.93659495 244.90121739 81.89175789 234.74609375 92.01953125 C232.97269518 93.79427952 231.19959339 95.56932438 229.42677307 97.34465027 C225.73786464 101.03648715 222.04541309 104.72473209 218.3503418 108.41040039 C214.07896177 112.671441 209.81433649 116.93911913 205.55359787 121.21079713 C201.43559111 125.33895137 197.31200762 129.46149265 193.18599129 133.58164024 C191.43613812 135.33015706 189.68777544 137.0801668 187.94091606 138.83167458 C185.51414808 141.26349031 183.08111773 143.68885664 180.64624023 146.11254883 C179.9226532 146.84018433 179.19906616 147.56781982 178.45355225 148.31750488 C177.79356735 148.97185013 177.13358246 149.62619537 176.45359802 150.30036926 C175.59287264 151.15996356 175.59287264 151.15996356 174.71475887 152.03692341 C173.25 153.25 173.25 153.25 171.25 153.25 C176.20899633 159.08300849 181.43443423 164.5588585 186.87573242 169.94165039 C187.70913651 170.77038162 188.54254059 171.59911285 189.40119934 172.45295715 C191.19797066 174.23928441 192.99583837 176.02450943 194.79469872 177.80873299 C197.64329843 180.6351919 200.48795485 183.46555858 203.33113098 186.29747009 C211.41098429 194.34406698 219.49511211 202.38633566 227.58959961 210.41821289 C232.07249127 214.86651435 236.54994964 219.32021067 241.02150422 223.77990907 C243.38165484 226.13331445 245.74533206 228.48289968 248.11418724 230.82756233 C250.75388345 233.44075271 253.38412476 236.06312534 256.01245117 238.68774414 C257.18062881 239.83738647 257.18062881 239.83738647 258.37240601 241.01025391 C262.51740599 245.17069724 265.61203984 248.99561772 268.25 254.25 C268.66765625 255.04664063 269.0853125 255.84328125 269.515625 256.6640625 C273.60268746 265.84373452 273.51369219 274.56110363 270.1875 284 C265.25021109 295.41490194 258.17430037 302.34388099 246.7421875 307.34765625 C237.32201218 310.60382618 227.31234992 310.46544337 218.25 306.25 C203.87480694 299.01987331 192.52292253 284.65439826 181.3359375 273.43359375 C179.51198904 271.6077774 177.68781758 269.78218379 175.86343384 267.95680237 C171.57657784 263.66653698 167.29195288 259.37405554 163.0084368 255.08045584 C158.12517666 250.18595413 153.23902046 245.29434779 148.35263896 240.40296257 C138.31523833 230.35515575 128.28141448 220.30378302 118.25 210.25 C115.15582752 211.62703277 113.05240133 213.20286755 110.67181396 215.60113525 C109.9795018 216.29358841 109.28718964 216.98604156 108.57389832 217.69947815 C107.82473648 218.45897263 107.07557465 219.2184671 106.30371094 220.00097656 C105.50643082 220.80117722 104.7091507 221.60137787 103.88771057 222.42582703 C102.15636491 224.16478505 100.42733373 225.90604978 98.70034027 227.64933014 C95.9637267 230.41146587 93.22091838 233.16731034 90.47637939 235.92156982 C84.15075186 242.2712672 77.83512646 248.63088285 71.51969147 254.99071503 C65.27951654 261.27457237 59.03537593 267.5544223 52.78437042 273.82750702 C50.08825323 276.53654841 47.39825642 279.25156739 44.70843506 281.96685791 C43.04387821 283.63868491 41.37903705 285.31022889 39.71386719 286.98144531 C38.97280228 287.73284286 38.23173737 288.48424042 37.46821594 289.25840759 C31.87033838 294.8574069 25.95730613 300.45968856 18.5625 303.5625 C17.85738281 303.86800781 17.15226562 304.17351562 16.42578125 304.48828125 C6.49482977 307.96500574 -4.49018966 307.42438004 -13.93359375 302.91015625 C-23.30271702 297.38744142 -30.3567418 289.70254454 -33.75 279.25 C-35.36525153 268.06900697 -34.07913016 257.22439994 -28.75 247.25 C-20.75312886 236.71301983 -10.27594084 227.65012678 -0.93359375 218.3359375 C0.8922226 216.51198904 2.71781621 214.68781758 4.54319763 212.86343384 C8.83346302 208.57657784 13.12594446 204.29195288 17.41954416 200.0084368 C22.31404587 195.12517666 27.20565221 190.23902046 32.09703743 185.35263896 C42.14484425 175.31523833 52.19621698 165.28141448 62.25 155.25 C58.00884942 150.18410694 53.57549435 145.44110321 48.88696289 140.78930664 C48.17556656 140.07937057 47.46417023 139.36943451 46.73121643 138.63798523 C45.19695391 137.10750749 43.66153793 135.57818535 42.1250782 134.04991341 C39.68811499 131.62579708 37.25436213 129.19849794 34.82139587 126.77037048 C28.77933334 120.74162793 22.73184147 114.71834104 16.68450928 108.69488525 C11.56803303 103.59819642 6.453647 98.4994272 1.34197807 93.39791679 C-1.04607862 91.0163033 -3.43714688 88.63774244 -5.82835388 86.2592926 C-7.30490804 84.78637405 -8.78132025 83.31331318 -10.25756836 81.84008789 C-10.91492981 81.18789276 -11.57229126 80.53569763 -12.24957275 79.86373901 C-16.08722607 76.02651953 -19.72734965 72.07246543 -23.2616663 67.95365047 C-24.45736451 66.58497097 -25.72270982 65.27729018 -27.0078125 63.9921875 C-33.7545144 57.2454856 -37.83011923 48.24726754 -38.25 38.625 C-37.36569378 26.10508566 -32.70499452 16.44449476 -23.6796875 7.8203125 C-16.20084833 1.73429358 -9.3831959 0.06132808 0 0 Z " fill="#FDFDFD" transform="translate(226.75,1557.75)"/>
<path d="M0 0 C4.3195712 3.33044742 8.08525217 7.12742799 11.89153671 11.02352905 C12.75463959 11.89422531 13.61774246 12.76492157 14.50699997 13.66200256 C16.36385712 15.53685566 18.21778801 17.4141336 20.06731415 19.2961731 C22.9919341 22.27136803 25.92944561 25.23361452 28.86910629 28.19393921 C36.68923772 36.072941 44.49275564 43.96832747 52.28812897 51.8718214 C57.42824205 57.08309023 62.57536973 62.28720152 67.73625386 67.47790813 C70.66109447 70.42081901 73.57411581 73.37480628 76.4788444 76.33756351 C78.70408282 78.60087449 80.94553143 80.84803636 83.18450546 83.0977478 C84.38769173 84.33496834 84.38769173 84.33496834 85.61518478 85.59718323 C86.35509155 86.33455215 87.09499832 87.07192108 87.85732651 87.83163452 C88.49696775 88.47978119 89.136609 89.12792786 89.79563332 89.79571533 C91.55451567 91.24466277 91.55451567 91.24466277 93.64983749 90.96036148 C96.09722305 89.83786666 97.55030079 88.49710428 99.44234848 86.57766724 C100.18225525 85.83465866 100.92216202 85.09165009 101.6844902 84.3261261 C102.48661438 83.50536087 103.28873856 82.68459564 104.11516953 81.83895874 C104.96775848 80.9787764 105.82034744 80.11859406 106.69877243 79.23234558 C108.55237321 77.36061215 110.40305046 75.4864247 112.24954224 73.60771942 C115.17552491 70.63155113 118.11405278 67.66798604 121.05483627 64.70645142 C128.88913628 56.81301835 136.70751944 48.9038841 144.51676357 40.98566461 C149.64432299 35.78663326 154.7791183 30.59498582 159.92770088 25.41676545 C162.84591008 22.48059566 165.75233508 19.53340141 168.65022206 16.57717943 C170.89266075 14.2962353 173.15172242 12.03184508 175.40813828 9.76473999 C176.19811707 8.95207169 176.98809586 8.13940338 177.8020134 7.30210876 C186.37489815 -1.24202878 195.09666766 -5.30609094 207.18157578 -5.33755493 C218.25517093 -5.09155745 226.70301904 -0.94047908 234.55999374 6.78915405 C242.52063115 15.3747387 245.32693818 23.93220271 244.99358749 35.7383728 C243.49154434 50.17846946 234.86980577 59.14160977 224.96062851 68.95932007 C223.70088463 70.21950203 223.70088463 70.21950203 222.41569138 71.50514221 C219.66642778 74.25302368 216.9101706 76.99377232 214.15374374 79.73446655 C212.23461029 81.64874704 210.31699101 83.56454157 208.39933395 85.4803009 C203.88450128 89.98894741 199.36460048 94.49247664 194.84280103 98.99413484 C189.69001721 104.12446991 184.54299345 109.26056755 179.39641678 114.39712822 C168.82056607 124.9521419 158.23759701 135.49999139 147.64983749 146.0430603 C152.22121497 151.53294148 157.08519829 156.59867387 162.16204453 161.6211853 C162.99530258 162.44977051 163.82856064 163.27835571 164.68706894 164.13204956 C166.48659286 165.92111607 168.28720885 167.70908465 170.08880615 169.49606323 C172.94151057 172.32665845 175.79029802 175.16113531 178.63759995 177.99716187 C186.73028041 186.05655601 194.82718896 194.11166882 202.93450546 202.15634155 C207.42215135 206.60939634 211.9043636 211.06784633 216.38067138 215.53229904 C218.74419099 217.88907193 221.11123848 220.24202393 223.48345947 222.59005737 C226.12805524 225.20814548 228.76319467 227.83541777 231.39641953 230.4649353 C232.17677567 231.23293457 232.95713181 232.00093384 233.7611351 232.79220581 C237.91468972 236.96120461 240.98603094 240.79197192 243.64983749 246.0430603 C244.21573593 246.95700562 244.78163437 247.87095093 245.36468124 248.81259155 C247.21083146 253.45321839 247.22487498 257.7753276 247.21233749 262.7305603 C247.2099205 263.71355103 247.20750351 264.69654175 247.20501328 265.70932007 C247.00854838 273.44913799 245.56010287 278.91088557 240.64983749 285.0430603 C240.19350937 285.70048218 239.73718124 286.35790405 239.26702499 287.0352478 C233.45938805 294.76770157 224.03147404 299.37521381 214.64983749 301.0430603 C203.44712408 302.10019709 194.67003219 299.66840998 185.64983749 293.0430603 C176.43514022 285.33378915 168.08632719 276.62557073 159.60686874 268.13290405 C158.06865885 266.59536924 156.53030066 265.05798278 154.99180222 263.52073669 C151.78382151 260.31422243 148.57763631 257.10592668 145.37273788 253.89633179 C141.28101332 249.79890092 137.18480173 245.70598979 133.08723545 241.61440182 C129.91543263 238.4462249 126.74603061 235.27565485 123.57733345 232.10437202 C122.06830374 230.59467916 120.55854173 229.08571788 119.04800987 227.577528 C116.93343497 225.46551418 114.82212811 223.35028426 112.71160507 221.23422241 C112.09793076 220.62257233 111.48425644 220.01092224 110.85198593 219.3807373 C105.79502392 214.29936469 101.11494538 208.93075812 96.46233749 203.4805603 C94.78616048 201.80659027 94.78616048 201.80659027 92.76800156 202.24179554 C90.18322675 203.21957106 88.88321314 204.45643984 86.94671249 206.42579651 C86.22652435 207.15053162 85.50633621 207.87526672 84.76432419 208.6219635 C83.98404358 209.42245621 83.20376297 210.22294891 82.39983749 211.04769897 C81.15503365 212.30630234 81.15503365 212.30630234 79.88508224 213.59033203 C77.60891996 215.89359508 75.33937624 218.20317363 73.0716095 220.51469588 C70.68877899 222.93868988 68.29498433 225.3517912 65.90154648 227.76530457 C57.75336701 235.98582992 49.62271463 244.22355637 41.50579453 252.47494507 C37.02248549 257.03229209 32.52814971 261.57848138 28.02208519 266.11333257 C25.64214276 268.50957415 23.26830531 270.91122666 20.90838242 273.32719994 C18.26436848 276.02931368 15.60196483 278.71201757 12.93499374 281.39144897 C12.17090698 282.18182053 11.40682022 282.97219208 10.61957932 283.78651428 C2.41113596 291.95171869 -8.60335978 298.22675734 -20.41266251 298.4805603 C-31.73542914 298.24843069 -40.13854936 294.0737454 -48.22906876 286.3243103 C-56.46302688 277.46863527 -58.95304152 269.59023289 -58.82452774 257.66415405 C-58.59249969 251.5008686 -57.50263077 246.4177603 -54.35016251 241.0430603 C-53.98793594 240.4139978 -53.62570938 239.7849353 -53.25250626 239.1368103 C-51.12980794 235.8556224 -48.65729098 233.34836808 -45.68156815 230.82923889 C-41.37361342 227.10682688 -37.32549471 223.17308414 -33.29767227 219.15170288 C-32.53733185 218.39632736 -31.77699142 217.64095184 -30.99361038 216.86268616 C-28.50684647 214.3903999 -26.02387869 211.91434934 -23.54156876 209.43759155 C-22.68961363 208.5884638 -21.8376585 207.73933605 -20.95988655 206.86447716 C-16.46267946 202.38219432 -11.96830461 197.89709507 -7.47638321 193.40951538 C-2.83366473 188.77231094 1.81827882 184.14447611 6.47239208 179.51871204 C10.05208444 175.95760141 13.62509203 172.38984142 17.1962719 168.82019615 C18.90945236 167.11004642 20.6251384 165.40240296 22.34334755 163.69730568 C24.73703707 161.32060285 27.12115872 158.9346939 29.50310898 156.54623413 C30.21630295 155.84225494 30.92949692 155.13827576 31.66430283 154.41296387 C32.63347893 153.43543404 32.63347893 153.43543404 33.62223434 152.43815613 C34.18612082 151.87573621 34.75000731 151.31331629 35.33098125 150.73385334 C36.88159222 148.74594735 37.52213798 147.57298284 37.64983749 145.0430603 C36.35764676 143.02350322 36.35764676 143.02350322 34.31779099 141.15011597 C33.17170616 140.0067276 33.17170616 140.0067276 32.00246811 138.84024048 C31.14803116 138.01320618 30.29359421 137.18617188 29.41326523 136.33407593 C28.52572052 135.45543884 27.63817581 134.57680176 26.72373581 133.67153931 C24.7880128 131.75824858 22.84840991 129.85010897 20.90093422 127.94889832 C17.81462624 124.93498351 14.74801578 121.90154632 11.68427658 118.86471558 C4.06431999 111.31783705 -3.58182617 103.7976329 -11.23218155 96.28158569 C-17.16438749 90.45288243 -23.08927307 84.61709909 -28.99392933 78.76047277 C-32.03094927 75.74973782 -35.08159049 72.75378688 -38.14377701 69.76866245 C-40.51059746 67.45372268 -42.85748028 65.11885918 -45.20782852 62.78720093 C-46.46822952 61.57094025 -46.46822952 61.57094025 -47.75409317 60.33010864 C-57.16564259 50.90628516 -61.64199795 40.88111184 -61.66705704 27.66244507 C-61.48316331 16.936446 -57.14998758 8.93841191 -49.69000626 1.3555603 C-35.21716872 -11.8315354 -15.32971065 -10.90841564 0 0 Z " fill="#FDFDFD" transform="translate(1603.3501625061035,188.95693969726563)"/>
<path d="M0 0 C2.56036377 2.0337677 2.56036377 2.0337677 5.17675781 4.48364258 C5.67806843 4.95264134 6.17937904 5.42164011 6.69588089 5.90485096 C15.16015442 13.89815441 23.32794733 22.2059096 31.546875 30.44921875 C33.41280509 32.31701751 35.27895875 34.18459295 37.14532471 36.05195618 C41.52435862 40.43407273 45.90084189 44.81872713 50.27636647 49.20434743 C55.2660717 54.20531021 60.25868699 59.2033636 65.25152349 64.20119989 C75.50420881 74.46427998 85.75331717 84.73092704 96 95 C99.20918748 93.58794654 101.33161408 91.90556862 103.78578186 89.41435242 C104.52424347 88.66996918 105.26270508 87.92558594 106.02354431 87.15864563 C106.82409744 86.34147568 107.62465057 85.52430573 108.44946289 84.68237305 C109.30044556 83.82204468 110.15142822 82.96171631 111.02819824 82.07531738 C112.87729295 80.2052094 114.7245256 78.33343984 116.56913948 76.45892906 C119.49306565 73.48875392 122.42684743 70.52844783 125.36265564 67.57002258 C133.70938655 59.15653634 142.04793291 50.73506481 150.36499023 42.29223633 C154.95998144 37.62792626 159.5658359 32.97462927 164.18377489 28.33303481 C166.62320184 25.88013613 169.05673437 23.42197846 171.47679329 20.94995689 C174.18311603 18.18552962 176.91294014 15.44503964 179.64477539 12.70581055 C180.43115891 11.89471329 181.21754242 11.08361603 182.02775574 10.24794006 C188.98346128 3.34138557 197.01221116 -1.45521152 207 -2 C207.76957031 -2.05027344 208.53914063 -2.10054687 209.33203125 -2.15234375 C220.7830335 -2.59209038 230.35392934 2.05351572 238.85546875 9.66015625 C244.13036548 15.39609794 248.50903012 23.1444819 249 31 C249.05027344 31.72574219 249.10054687 32.45148437 249.15234375 33.19921875 C249.64738394 45.81284274 245.22827656 54.96461449 236.97197151 64.29083633 C234.75770115 66.6075821 232.50062649 68.87116599 230.21899414 71.12158203 C229.36941132 71.97160294 228.51982849 72.82162384 227.64450073 73.69740295 C225.34251006 75.99767771 223.03406419 78.29121353 220.72241139 80.58177042 C218.29732872 82.98793327 215.88089767 85.40275497 213.46348572 87.81661987 C208.89752798 92.37330166 204.32398665 96.92229031 199.74758095 101.46847618 C194.53234154 106.65003196 189.3257505 111.8402417 184.11982167 117.03114915 C173.42272186 127.69700091 162.7149608 138.3520893 152 149 C153.4204625 152.23173977 155.13223699 154.37618353 157.63034058 156.85739136 C158.38458313 157.61149292 159.13882568 158.36559448 159.91592407 159.14254761 C160.74401581 159.9603067 161.57210754 160.7780658 162.42529297 161.62060547 C163.2969812 162.48937317 164.16866943 163.35814087 165.06677246 164.25323486 C166.96128776 166.14013607 168.85750448 168.0251241 170.75683212 169.90716171 C173.76282327 172.88607021 176.76113779 175.87262569 179.7583313 178.86038208 C186.66525347 185.74322702 193.58212844 192.6160418 200.49914551 199.48873901 C206.83422902 205.78342081 213.1671676 212.08022109 219.49202073 218.38518441 C222.46864022 221.35186627 225.45006201 224.31360821 228.43530631 227.27161002 C230.73281144 229.55062412 233.02381946 231.83615573 235.31591797 234.12060547 C236.13996124 234.9343161 236.96400452 235.74802673 237.8130188 236.58639526 C246.50407249 245.27583639 251.27120111 252.77982406 251.375 265.375 C251.22478717 277.39979577 248.48407582 285.17537663 240 294 C230.99100637 302.48280462 222.76371644 304.54396595 210.65991211 304.41113281 C190.11379029 303.68579989 176.00498633 283.14284424 162.453125 269.55078125 C160.58719491 267.68298249 158.72104125 265.81540705 156.85467529 263.94804382 C152.47564138 259.56592727 148.09915811 255.18127287 143.72363353 250.79565257 C138.7339283 245.79468979 133.74131301 240.7966364 128.74847651 235.79880011 C118.49579119 225.53572002 108.24668283 215.26907296 98 205 C94.834644 206.39836549 92.72562481 208.03665647 90.30360413 210.4962616 C89.58486115 211.22092621 88.86611816 211.94559082 88.12559509 212.69221497 C87.34688553 213.48754135 86.56817596 214.28286774 85.76586914 215.10229492 C84.9376062 215.93990356 84.10934326 216.77751221 83.25598145 217.64050293 C80.98571823 219.93726967 78.71978122 222.23822039 76.45470357 224.54009795 C74.07322297 226.95651273 71.68360194 229.36483833 69.29405212 231.77326965 C61.16052735 239.97351435 53.03510787 248.1816606 44.93139648 256.41137695 C40.45437726 260.95784202 35.96639294 265.49318729 31.46633619 270.01685411 C29.09047206 272.40615844 26.72248026 274.80216551 24.36427498 277.20897484 C0.29114584 301.76920499 0.29114584 301.76920499 -14.0012207 301.921875 C-14.84644287 301.88578125 -15.69166504 301.8496875 -16.5625 301.8125 C-17.91637817 301.77962891 -17.91637817 301.77962891 -19.29760742 301.74609375 C-30.04956863 301.22071273 -38.04858318 297.05817029 -45.31640625 289.140625 C-51.68512905 281.04303778 -54.35851842 272.54338654 -54.5 262.3125 C-54.54125 261.58611328 -54.5825 260.85972656 -54.625 260.11132812 C-54.75279661 250.91795929 -49.95933397 242.76121223 -43.86172485 236.14019775 C-42.27547608 234.53685821 -40.67305951 232.94939677 -39.05712891 231.37597656 C-37.73908264 230.05661606 -37.73908264 230.05661606 -36.39440918 228.71060181 C-34.01281996 226.33244371 -31.61885125 223.96828282 -29.21801805 221.60965443 C-26.70074432 219.13023143 -24.20077766 216.63347319 -21.69882202 214.13861084 C-16.97233888 209.43067662 -12.23079192 204.73823009 -7.4834522 200.05133796 C-2.07362915 194.70889225 3.3188935 189.34912446 8.71012759 183.98793077 C19.78779486 172.97275267 30.88667611 161.97920996 42 151 C40.58282184 147.7753862 38.88309443 145.64436211 36.38311768 143.17625427 C35.63176544 142.42937851 34.88041321 141.68250275 34.10629272 140.91299438 C33.28134308 140.10309052 32.45639343 139.29318665 31.60644531 138.45874023 C30.73796967 137.598004 29.86949402 136.73726776 28.97470093 135.85044861 C27.08662535 133.98003766 25.19687728 132.11150098 23.3042984 130.2456646 C20.30486763 127.28770034 17.31476604 124.32042534 14.32635498 121.35133362 C5.8274584 112.90992341 -2.68120019 104.47844217 -11.20507812 96.06225586 C-15.91402757 91.41264034 -20.61376559 86.75391027 -25.30384374 82.08525807 C-28.26435084 79.13928936 -31.2355237 76.20468431 -34.21535444 73.27826965 C-36.51675259 71.0114643 -38.80146593 68.72793677 -41.08886719 66.44702148 C-42.31414627 65.2534201 -42.31414627 65.2534201 -43.56417847 64.03570557 C-52.60855069 54.94409723 -57.79019961 45.04663076 -58.4375 32.25 C-58.25033821 22.36785753 -53.75937837 13.12891159 -47 6 C-33.70493659 -6.67063773 -16.15626796 -8.82860531 0 0 Z " fill="#FDFDFD" transform="translate(927,874)"/>
<path d="M0 0 C1.57418701 0.00737183 1.57418701 0.00737183 3.18017578 0.01489258 C11.87463428 0.14492935 19.86106978 1.16976365 28.3125 3.3125 C29.04694336 3.49474121 29.78138672 3.67698242 30.53808594 3.86474609 C60.8316993 11.46672831 90.61268081 27.95235934 107.3125 55.3125 C108.29476563 56.88064453 108.29476563 56.88064453 109.296875 58.48046875 C114.50371324 67.02738095 118.11760075 75.84761098 121.3125 85.3125 C121.6425 86.28703125 121.9725 87.2615625 122.3125 88.265625 C127.70425579 105.16670566 127.39903196 126.39628132 122.3125 143.3125 C122.07273437 144.21613281 121.83296875 145.11976563 121.5859375 146.05078125 C120.01603629 151.73520378 117.90896386 157.02399692 115.3125 162.3125 C114.76851562 163.4365625 114.22453125 164.560625 113.6640625 165.71875 C99.67566983 193.73967437 74.25360927 215.00420863 44.57421875 224.9609375 C43.15435428 225.41368612 41.73376103 225.8641547 40.3125 226.3125 C39.58627441 226.55516602 38.86004883 226.79783203 38.11181641 227.04785156 C26.1383943 230.94068831 14.49106495 231.78824683 2 231.8125 C0.93631195 231.81923737 0.93631195 231.81923737 -0.14886475 231.82611084 C-34.7081331 231.9151476 -66.54919847 217.88676837 -91.140625 193.921875 C-111.01730152 172.93321658 -122.69491237 144.90255191 -122.9375 116.125 C-122.94700684 115.1978418 -122.95651367 114.27068359 -122.96630859 113.31542969 C-122.93765317 107.37420427 -122.15699498 102.05542632 -120.6875 96.3125 C-120.47609375 95.25804687 -120.2646875 94.20359375 -120.046875 93.1171875 C-114.03807051 64.22870438 -96.09030274 38.71660629 -71.6875 22.3125 C-56.36192328 12.68070201 -40.41818586 6.00971037 -22.6875 2.3125 C-21.85565186 2.13372314 -21.02380371 1.95494629 -20.16674805 1.77075195 C-13.40177977 0.41413259 -6.8923502 -0.03869586 0 0 Z " fill="#000000" transform="translate(1694.6875,907.6875)"/>
<path d="M0 0 C1.42806716 0.47006508 2.86074935 0.92625658 4.296875 1.37109375 C27.92134643 9.08755425 51.08138552 26.66179101 64 48 C64.64195312 49.0209375 65.28390625 50.041875 65.9453125 51.09375 C80.31105588 74.9092029 86.61205451 102.69880768 80.51074219 130.25830078 C79.49764256 134.22899771 78.31368333 138.11913868 77 142 C76.77538086 142.67949707 76.55076172 143.35899414 76.31933594 144.05908203 C66.39494162 173.2905404 44.43159462 196.22033751 17.3125 210.1875 C-14.19201834 225.64744122 -50.49723743 229.28406218 -84 217.9375 C-99.49377293 212.35116597 -113.43913118 204.64599511 -126 194 C-127.24330078 192.98292969 -127.24330078 192.98292969 -128.51171875 191.9453125 C-138.44017954 183.55079048 -145.24254766 172.95486985 -152 162 C-152.4846875 161.25363281 -152.969375 160.50726563 -153.46875 159.73828125 C-157.73217727 152.78288227 -159.98890409 144.88427674 -162.34960938 137.12744141 C-162.89224546 135.35246736 -163.46579234 133.58698071 -164.046875 131.82421875 C-171.21056966 106.85266048 -164.88597687 78.46070003 -152.96630859 56.05712891 C-150.83119714 52.23893872 -148.48152913 48.60025127 -146 45 C-145.4946875 44.25234375 -144.989375 43.5046875 -144.46875 42.734375 C-125.46250383 16.5523012 -94.68616318 -1.216433 -62.875 -6.375 C-42.2895909 -8.49994546 -19.15634253 -8.70145078 0 0 Z " fill="#000000" transform="translate(1066,227)"/>
<path d="M0 0 C0.94101563 0.51433594 1.88203125 1.02867188 2.8515625 1.55859375 C9.0660365 5.10834748 14.54677659 9.38180142 20 14 C20.825 14.67804688 21.65 15.35609375 22.5 16.0546875 C42.54938221 33.1593167 56.78729178 60.76049205 59 87 C59.18472364 91.10500938 59.2303055 95.20373434 59.25 99.3125 C59.2809375 100.90868164 59.2809375 100.90868164 59.3125 102.53710938 C59.34377549 108.94467627 58.63877068 114.48137206 56.73291016 120.60644531 C56.03772319 122.87680274 55.54889885 125.10340868 55.125 127.4375 C50.88530605 146.84357883 38.32497723 163.81929028 25 178 C24.47277344 178.60328125 23.94554687 179.2065625 23.40234375 179.828125 C8.1062383 196.571688 -15.95317921 205.34946289 -37.13671875 211.203125 C-39.10602117 211.75119825 -41.06075203 212.35358401 -43 213 C-80.90785182 216.71286094 -115.45482311 209.80521478 -146 186.25 C-167.35881383 168.60870123 -185.27829031 142.47442436 -188.79345703 114.40625 C-189.24429682 109.15391316 -189.28674056 103.89391012 -189.3125 98.625 C-189.31813965 97.51914551 -189.3237793 96.41329102 -189.32958984 95.27392578 C-189.27277797 88.89462654 -188.61078464 83.1602994 -187 77 C-186.80019531 75.95714844 -186.60039063 74.91429687 -186.39453125 73.83984375 C-180.72488619 45.56772106 -161.96227391 20.44196493 -138.25 4.625 C-130.47783796 -0.50238301 -122.74100779 -4.74442057 -114 -8 C-113.36707031 -8.24041016 -112.73414063 -8.48082031 -112.08203125 -8.72851562 C-103.10738 -12.12137158 -94.56787734 -14.81295393 -85 -16 C-84.07461426 -16.16822266 -83.14922852 -16.33644531 -82.19580078 -16.50976562 C-53.67902595 -20.88422581 -24.87512199 -13.86062289 0 0 Z " fill="#000000" transform="translate(1089,1614)"/>
<path d="M0 0 C1.3921875 0.68835938 1.3921875 0.68835938 2.8125 1.390625 C19.48823224 10.01273656 35.29308541 23.81359674 45 40 C45.65226563 41.04285156 46.30453125 42.08570313 46.9765625 43.16015625 C52.1858262 51.69351946 55.96479293 60.485881 59 70 C59.31759277 70.96317139 59.31759277 70.96317139 59.64160156 71.94580078 C65.00403938 88.76821861 65.5656315 109.21877775 60 126 C59.59158005 127.38998924 59.18551038 128.78067031 58.78125 130.171875 C54.42581562 144.64053742 48.10350572 158.60900651 38 170 C36.93458984 171.22589844 36.93458984 171.22589844 35.84765625 172.4765625 C33.60061755 175.01936526 31.30880108 177.51328781 29 180 C28.39800781 180.67933594 27.79601562 181.35867188 27.17578125 182.05859375 C8.3776759 202.32466395 -23.86423431 214.7198061 -51.01025391 216.15966797 C-82.8777524 217.32137832 -114.73593053 210.64162143 -140 190 C-140.92039062 189.29101562 -141.84078125 188.58203125 -142.7890625 187.8515625 C-158.82841632 175.2586814 -169.15393352 159.31461262 -177.19970703 140.81689453 C-177.85908831 139.31990994 -178.5624668 137.84238485 -179.27734375 136.37109375 C-189.16246774 114.92223981 -187.20499341 85.58637705 -179.3125 63.9375 C-173.89559322 49.99715576 -166.56510022 38.44554562 -157 27 C-156.45601562 26.30261719 -155.91203125 25.60523438 -155.3515625 24.88671875 C-141.55134392 7.53673296 -119.51964405 -2.97664544 -99 -10 C-97.66195312 -10.47759766 -97.66195312 -10.47759766 -96.296875 -10.96484375 C-64.51969219 -21.53970094 -29.08091199 -14.69850443 0 0 Z " fill="#000000" transform="translate(405,235)"/>
<path d="M0 0 C0.66 0.33 1.32 0.66 2 1 C-3.61 6.61 -9.22 12.22 -15 18 C-15 13.07254925 -11.31913617 10.39978807 -8 7 C-5.39491779 4.58973264 -2.72918126 2.2684104 0 0 Z " fill="#222222" transform="translate(262,248)"/>
</svg>
